<svg xmlns="http://www.w3.org/2000/svg"  viewBox="0 0 120 120" width="480px" height="480px" baseProfile="basic"><rect width="16" height="33" x="8" y="52" opacity=".35"/><rect width="16" height="33" x="96" y="52" opacity=".35"/><rect width="16" height="33" x="8" y="48" fill="#9500ba"/><rect width="6" height="16" x="57" y="12" fill="#d663ff"/><rect width="16" height="33" x="96" y="48" fill="#9500ba"/><path fill="#b730e1" d="M102,102H18V40.122C18,31.218,25.218,24,34.122,24h51.756C94.782,24,102,31.218,102,40.122V102z"/><circle cx="60" cy="12" r="7" opacity=".35"/><circle cx="60" cy="9" r="7" fill="#d663ff"/><circle cx="39" cy="59" r="9" opacity=".35"/><circle cx="81" cy="59" r="9" opacity=".35"/><circle cx="39" cy="55" r="9" fill="#f6a3ff"/><circle cx="81" cy="55" r="9" fill="#f6a3ff"/><rect width="44" height="14" x="38" y="78" fill="#f6a3ff"/><rect width="6" height="14" x="45" y="78" fill="#d663ff"/><rect width="6" height="14" x="69" y="78" fill="#d663ff"/><rect width="6" height="14" x="57" y="78" fill="#d663ff"/><rect width="84" height="4" x="18" y="102" opacity=".35"/><rect width="44" height="4" x="38" y="92" opacity=".35"/></svg>